<svg xmlns="http://www.w3.org/2000/svg" xmlns:xlink="http://www.w3.org/1999/xlink" id="Camada_1" data-name="Camada 1" viewBox="0 0 349.43 328.98"><defs><style>.cls-1{fill:none;}.cls-2{fill:#008c30;}.cls-3{fill:url(#Gradiente_sem_nome_53);}.cls-4{fill:url(#Gradiente_sem_nome_64);}.cls-5{fill:#00b131;}</style><linearGradient id="Gradiente_sem_nome_53" x1="280.3" y1="46.21" x2="335.1" y2="357.15" gradientUnits="userSpaceOnUse"><stop offset="0.37" stop-color="#00b131"></stop><stop offset="1" stop-color="#008c30"></stop></linearGradient><linearGradient id="Gradiente_sem_nome_64" x1="42.36" y1="195.87" x2="82.74" y2="-5.32" gradientUnits="userSpaceOnUse"><stop offset="0" stop-color="#00b131"></stop><stop offset="1" stop-color="#008c30"></stop></linearGradient></defs><rect class="cls-1" x="7.47" width="992.53" height="329"></rect><rect class="cls-1" x="7.47" width="992.53" height="329"></rect><path class="cls-2" d="M10.3,312.68a22,22,0,0,0,17.37-8.47h0l17.59-22.81L248.73,12.23a27.67,27.67,0,0,1,48.37,9.28A22,22,0,0,0,271,28.15h0L253.38,51,108.21,243,49.9,320.12a27.66,27.66,0,0,1-48.36-9.27A22,22,0,0,0,10.3,312.68Z"></path><path class="cls-3" d="M348.94,301.57l-.17-.89L297.79,24a27.73,27.73,0,0,0-47.44-13.63,22.62,22.62,0,0,1,8.77,2.32,22,22,0,0,1,11.64,15.42h0l5.34,28.3L322.4,303.7l.4.52h0a22,22,0,0,0,26.14,6.64c-.1.34-.23.67-.34,1h0S350.2,308.45,348.94,301.57Z"></path><path class="cls-4" d="M27.13,304.16h0l5-28.36L80.07,25l-1.68-.22-.9-.12-6.77-6.45L58.61,15.57l-5.23,5.94L18.13,203.38.39,298.46A27.67,27.67,0,0,0,39.84,328a22,22,0,0,1-12.71-23.79Z"></path><path class="cls-5" d="M340.17,312.68a22,22,0,0,1-17.37-8.47h0l-17.58-22.81L101.75,12.23a27.67,27.67,0,0,0-48.37,9.28,22,22,0,0,1,26.13,6.64h0L97.1,51,242.26,243l58.31,77.16a27.67,27.67,0,0,0,48.37-9.27A22.09,22.09,0,0,1,340.17,312.68Z"></path></svg>